<svg width="71" height="22" viewBox="0 0 71 22" fill="none" xmlns="http://www.w3.org/2000/svg">
<path fill-rule="evenodd" clip-rule="evenodd" d="M71 11L70.9995 12.1L70.9989 12.5556L70.9972 12.9051L70.9956 13.1997L70.9929 13.4592L70.9901 13.6936L70.9862 13.9091L70.9818 14.1096L70.9774 14.2977L70.9719 14.4756L70.9659 14.6446L70.9593 14.8059L70.9521 14.9605L70.945 15.1091L70.9367 15.2523L70.9279 15.3906L70.9185 15.5245L70.9086 15.6543L70.8982 15.7804L70.8872 15.903L70.8756 16.0223L70.8635 16.1387L70.8509 16.2522L70.8371 16.363L70.8233 16.4713L70.809 16.5773L70.7942 16.6811L70.7782 16.7826L70.7622 16.8822L70.7457 16.9798L70.7281 17.0755L70.7105 17.1695L70.6918 17.2618L70.6725 17.3523L70.6533 17.4413L70.6329 17.5288L70.612 17.6148L70.5905 17.6993L70.5685 17.7825L70.5459 17.8644L70.5228 17.9449L70.4991 18.0242L70.4749 18.1022L70.4502 18.179L70.4243 18.2547L70.3984 18.3292L70.3715 18.4027L70.3445 18.475L70.3164 18.5462L70.2878 18.6165L70.2586 18.6856L70.2289 18.7538L70.1986 18.8211L70.1678 18.8874L70.1359 18.9527L70.104 19.0171L70.0709 19.0805L70.0374 19.1431L70.0033 19.2048L69.9686 19.2657L69.9333 19.3257L69.8976 19.3848L69.8607 19.4432L69.8238 19.5006L69.7859 19.5573L69.7473 19.6132L69.7082 19.6683L69.6681 19.7226L69.6279 19.7762L69.5866 19.8289L69.5448 19.881L69.5024 19.9323L69.4589 19.9828L69.4149 20.0326L69.3709 20.0818L69.3252 20.1302L69.2795 20.1778L69.2327 20.2248L69.1854 20.2711L69.1375 20.3167L69.0885 20.3616L69.039 20.4058L68.9889 20.4493L68.9377 20.4922L68.886 20.5344L68.8337 20.5759L68.7803 20.6169L68.7264 20.6571L68.6719 20.6967L68.6163 20.7357L68.5596 20.7739L68.5023 20.8116L68.4446 20.8486L68.3857 20.8851L68.3262 20.9208L68.2657 20.956L68.204 20.9905L68.1418 21.0245L68.0785 21.0578L68.0147 21.0905L67.9498 21.1226L67.8837 21.154L67.8171 21.185L67.7494 21.2152L67.6806 21.2449L67.6107 21.274L67.5397 21.3025L67.4682 21.3304L67.395 21.3577L67.3212 21.3844L67.2458 21.4106L67.1699 21.4361L67.0923 21.4611L67.0135 21.4855L66.9337 21.5092L66.8528 21.5325L66.7703 21.5552L66.6866 21.5772L66.6019 21.5987L66.5149 21.6196L66.4274 21.64L66.3377 21.6598L66.2469 21.679L66.1538 21.6977L66.0597 21.7158L65.9634 21.7332L65.8654 21.7502L65.7658 21.7666L65.664 21.7824L65.56 21.7977L65.4543 21.8124L65.3459 21.8266L65.2347 21.8402L65.1213 21.8532L65.0057 21.8656L64.8868 21.8776L64.7647 21.889L64.6392 21.8997L64.5104 21.91L64.3777 21.9197L64.2412 21.9288L64.0998 21.9374L63.9534 21.9454L63.8015 21.9529L63.6441 21.9599L63.479 21.9662L63.3067 21.9721L63.1256 21.9773L62.9335 21.9821L62.7293 21.9862L62.5097 21.9898L62.2714 21.9929L62.0083 21.9954L61.7095 21.9974L61.3572 21.9988L60.9031 21.9997L54.5156 22L53.1168 21.9998L52.6363 21.999L52.2723 21.9976L51.967 21.9958L51.6988 21.9933L51.4569 21.9904L51.2348 21.9869L51.0283 21.9827L50.8347 21.9781L50.6517 21.9729L50.4779 21.9672L50.3121 21.9609L50.1532 21.9541L50.0006 21.9466L49.8535 21.9387L49.7114 21.9302L49.574 21.9212L49.4407 21.9116L49.3112 21.9014L49.1854 21.8907L49.0629 21.8794L48.9434 21.8676L48.827 21.8552L48.7132 21.8423L48.602 21.8288L48.4933 21.8147L48.3869 21.8001L48.2826 21.7849L48.1805 21.7692L48.0804 21.7529L47.9822 21.736L47.8858 21.7186L47.7911 21.7006L47.6982 21.682L47.6069 21.6629L47.5172 21.6432L47.429 21.6229L47.3423 21.6021L47.2569 21.5807L47.173 21.5587L47.0905 21.5361L47.0092 21.513L46.9291 21.4893L46.8503 21.465L46.7727 21.4401L46.6963 21.4146L46.621 21.3886L46.5468 21.362L46.4737 21.3348L46.4017 21.307L46.3307 21.2786L46.2608 21.2496L46.1919 21.22L46.1239 21.1898L46.0569 21.159L45.9909 21.1276L45.9258 21.0956L45.8616 21.063L45.7983 21.0298L45.7359 20.996L45.6744 20.9615L45.6138 20.9265L45.554 20.8908L45.495 20.8545L45.4369 20.8176L45.3796 20.78L45.3231 20.7418L45.2674 20.7029L45.2125 20.6634L45.1583 20.6233L45.105 20.5825L45.0524 20.5411L45.0005 20.4989L44.9494 20.4562L44.8991 20.4128L44.8495 20.3686L44.8006 20.3239L44.7524 20.2784L44.705 20.2322L44.6582 20.1853L44.6122 20.1378L44.5668 20.0895L44.5221 20.0405L44.4781 19.9908L44.4349 19.9404L44.3923 19.8892L44.3503 19.8373L44.3091 19.7846L44.2684 19.7312L44.2285 19.677L44.1892 19.622L44.1506 19.5663L44.1126 19.5097L44.0752 19.4523L44.0385 19.3942L44.0024 19.3351L43.967 19.2753L43.9322 19.2146L43.898 19.153L43.8645 19.0906L43.8316 19.0273L43.7993 18.963L43.7676 18.8978L43.7365 18.8317L43.7061 18.7646L43.6762 18.6966L43.647 18.6276L43.6184 18.5575L43.5904 18.4864L43.563 18.4142L43.5361 18.341L43.5099 18.2667L43.4843 18.1912L43.4593 18.1145L43.4348 18.0367L43.411 17.9576L43.3877 17.8773L43.3651 17.7956L43.343 17.7127L43.3215 17.6284L43.3006 17.5426L43.2803 17.4554L43.2606 17.3666L43.2414 17.2763L43.2229 17.1843L43.2049 17.0906L43.1874 16.9952L43.1706 16.8979L43.1544 16.7987L43.1387 16.6974L43.1235 16.594L43.109 16.4884L43.095 16.3804L43.0816 16.27L43.0688 16.1569L43.0566 16.041L43.0449 15.9222L43.0338 15.8001L43.0233 15.6746L43.0133 15.5454L43.0039 15.4122L42.995 15.2747L42.9868 15.1323L42.9791 14.9846L42.9719 14.831L42.9653 14.6708L42.9593 14.5031L42.9538 14.3267L42.949 14.1403L42.9447 13.942L42.9409 13.7291L42.9377 13.498L42.9351 13.2431L42.933 12.955L42.9316 12.6163L42.9306 12.1843L42.9302 11.439L42.9305 9.99141L42.9312 9.50763L42.9325 9.14611L42.9344 8.8445L42.9368 8.58028L42.9398 8.34229L42.9434 8.12411L42.9476 7.92143L42.9523 7.73146L42.9575 7.55211L42.9634 7.38177L42.9698 7.21925L42.9767 7.06365L42.9842 6.91416L42.9923 6.77017L43.001 6.63108L43.0102 6.49655L43.02 6.36609L43.0303 6.23947L43.0413 6.11633L43.0528 5.99649L43.0649 5.87966L43.0775 5.76571L43.0907 5.65444L43.1045 5.54571L43.1189 5.43937L43.1338 5.3353L43.1493 5.23338L43.1654 5.13351L43.182 5.03561L43.1993 4.93958L43.217 4.84535L43.2354 4.75284L43.2544 4.66199L43.2739 4.57274L43.2941 4.48502L43.3148 4.3988L43.3361 4.31401L43.358 4.23061L43.3805 4.14856L43.4035 4.06782L43.4272 3.98835L43.4514 3.91013L43.4763 3.8331L43.5017 3.75725L43.5277 3.68254L43.5543 3.60896L43.5816 3.53646L43.6094 3.46503L43.6378 3.39464L43.6669 3.32528L43.6965 3.25691L43.7268 3.18953L43.7576 3.12311L43.7891 3.05765L43.8212 2.99311L43.854 2.92948L43.8873 2.86674L43.9213 2.8049L43.9559 2.74392L43.9911 2.6838L44.0269 2.62453L44.0634 2.56609L44.1006 2.50846L44.1384 2.45165L44.1768 2.39564L44.2159 2.34042L44.2556 2.28598L44.296 2.2323L44.3371 2.17939L44.3789 2.12724L44.4212 2.07583L44.4643 2.02516L44.508 1.97522L44.5525 1.926L44.5976 1.8775L44.6434 1.82971L44.69 1.78263L44.7372 1.73624L44.7852 1.69055L44.8338 1.64553L44.8832 1.6012L44.9333 1.55756L44.9842 1.51457L45.0358 1.47226L45.0881 1.4306L45.1413 1.3896L45.1951 1.34926L45.2498 1.30957L45.3053 1.27051L45.3615 1.2321L45.4185 1.19432L45.4764 1.15719L45.5351 1.12067L45.5947 1.08479L45.655 1.04953L45.7162 1.01489L45.7784 0.98087L45.8413 0.947458L45.9052 0.914661L45.9701 0.882475L46.0358 0.850894L46.1025 0.819912L46.1701 0.789536L46.2387 0.759759L46.3083 0.730582L46.379 0.701993L46.4507 0.674003L46.5234 0.646596L46.5972 0.619784L46.6722 0.59356L46.7482 0.567919L46.8254 0.542857L46.9039 0.51838L46.9835 0.494482L47.0644 0.471164L47.1466 0.448421L47.2301 0.426254L47.315 0.404661L47.4013 0.383641L47.489 0.363192L47.5782 0.343313L47.669 0.324003L47.7614 0.30526L47.8554 0.287085L47.9513 0.269474L48.0489 0.252429L48.1484 0.235946L48.2499 0.220026L48.3534 0.204669L48.4592 0.189872L48.5671 0.175634L48.6775 0.161957L48.7904 0.148837L48.9061 0.136276L49.0245 0.124271L49.146 0.112823L49.2708 0.10193L49.399 0.0915931L49.531 0.0818108L49.6671 0.072583L49.8077 0.0639084L49.9531 0.055787L50.104 0.0482186L50.2608 0.0412026L50.4243 0.0347387L50.5954 0.0288266L50.7753 0.0234659L50.9653 0.0186564L51.1674 0.0143979L51.3842 0.0106901L51.6193 0.00753286L51.8782 0.00492595L52.17 0.00286931L52.5118 0.00136282L52.9435 0.000406397L53.6469 0L60.7155 0.000143607L61.2279 0.000837227L61.6049 0.00208089L61.9175 0.00387466L62.1905 0.00621863L62.4365 0.00911289L62.6611 0.0125577L62.8702 0.016553L63.0656 0.0210993L63.25 0.0261965L63.425 0.0318451L63.5923 0.0380453L63.7519 0.0447974L63.9055 0.0521019L64.0536 0.0599588L64.1967 0.0683689L64.3348 0.0773327L64.4686 0.08685L64.5984 0.0969221L64.725 0.107549L64.8483 0.118732L64.9678 0.13047L65.085 0.142766L65.1989 0.155619L65.3106 0.169029L65.4196 0.182999L65.5264 0.197529L65.631 0.212618L65.7333 0.22827L65.8341 0.244483L65.9326 0.261259L66.0295 0.2786L66.1241 0.296506L66.2171 0.314977L66.3091 0.334016L66.3988 0.353622L66.4874 0.373799L66.5743 0.394546L66.6596 0.415865L66.7439 0.437758L66.827 0.460225L66.9084 0.483268L66.9882 0.50689L67.0675 0.53109L67.1451 0.555869L67.2216 0.581235L67.2975 0.607184L67.3718 0.633716L67.4451 0.660836L67.5172 0.688545L67.5882 0.716848L67.6586 0.745745L67.7274 0.775236L67.7956 0.805326L67.8628 0.836017L67.9288 0.867312L67.9943 0.899206L68.0587 0.931711L68.122 0.964827L68.1842 0.998558L68.2459 1.03291L68.307 1.06787L68.367 1.10345L68.4258 1.13967L68.4842 1.17651L68.5414 1.21398L68.5981 1.25208L68.6543 1.29082L68.7093 1.33021L68.7632 1.37025L68.8166 1.41093L68.8695 1.45227L68.9217 1.49427L68.9729 1.53693L69.023 1.58027L69.0731 1.62427L69.1221 1.66895L69.17 1.71432L69.2178 1.76037L69.2646 1.80713L69.3109 1.85458L69.356 1.90274L69.4011 1.95161L69.4452 2.00121L69.4886 2.05153L69.531 2.10258L69.5734 2.15438L69.6147 2.20693L69.6554 2.26024L69.6956 2.31431L69.7347 2.36916L69.7737 2.42479L69.8117 2.48122L69.8491 2.53845L69.886 2.5965L69.9223 2.65538L69.9576 2.71509L69.9928 2.77566L70.0269 2.83709L70.0605 2.89939L70.0935 2.96259L70.126 3.02669L70.1574 3.09172L70.1887 3.15768L70.2196 3.2246L70.2493 3.29249L70.2785 3.36137L70.3076 3.43127L70.3357 3.5022L70.3632 3.57418L70.3896 3.64725L70.416 3.72142L70.4419 3.79672L70.4672 3.87318L70.4914 3.95083L70.5157 4.0297L70.5388 4.10982L70.5613 4.19124L70.5839 4.27399L70.6054 4.35811L70.6263 4.44364L70.6467 4.53064L70.6665 4.61915L70.6857 4.70923L70.7044 4.80094L70.7226 4.89434L70.7402 4.9895L70.7567 5.0865L70.7732 5.18542L70.7892 5.28634L70.8041 5.38937L70.8189 5.49461L70.8332 5.60219L70.8464 5.71224L70.8596 5.82489L70.8718 5.94028L70.8833 6.05869L70.8949 6.18019L70.9053 6.30514L70.9152 6.43373L70.9251 6.56629L70.934 6.70312L70.9422 6.8447L70.9499 6.99155L70.9571 7.14411L70.9637 7.30323L70.9697 7.46966L70.9758 7.64451L70.9807 7.8292L70.9851 8.02549L70.989 8.23587L70.9923 8.46379L70.9945 8.71442L70.9967 8.99635L70.9984 9.32514L70.9995 9.73693L71 10.3792V11ZM54.4884 17.05H58.8915C63.0629 17.05 65.4961 14.4571 65.4961 10.9654C65.4961 7.43914 63.0959 4.95 58.9575 4.95H54.4884V17.05ZM52.2868 17.05H48.9845V4.95H52.2868V17.05ZM12.0835 11C12.0835 14.3372 9.66338 17.325 6.0246 17.325C2.38581 17.325 0 14.3722 0 11C0 7.66277 2.42014 4.675 6.05894 4.675C9.69772 4.675 12.0835 7.62784 12.0835 11ZM0.926858 11C0.926858 14.0227 3.08953 16.5038 6.05894 16.5038C9.02828 16.5038 11.1566 14.0577 11.1566 11C11.1566 7.97725 8.99399 5.4962 6.0246 5.4962C3.05521 5.4962 0.926858 7.94233 0.926858 11ZM16.2621 17.05H15.4109V4.95H16.2451L24.4688 15.477V4.95H25.3201V17.05H24.656L16.2621 6.29827V17.05ZM37.4264 17.05H28.8622V4.95H37.3412V5.77973H29.7476V10.5333H36.5751V11.363H29.7476V16.2203H37.4264V17.05ZM59.5508 14.9295C59.8756 14.9201 60.2454 14.8778 60.6219 14.7826C60.667 14.7713 60.7127 14.7593 60.76 14.7463C61.0506 14.6657 61.3655 14.5472 61.6891 14.3487C61.7684 14.3015 61.8454 14.2508 61.9214 14.1965L61.9186 14.1953C62.1492 14.0278 62.3826 13.8158 62.6143 13.5449C62.709 13.4337 62.8724 13.1988 62.9649 13.0165C62.7508 12.7896 62.425 12.6031 62.1195 12.439L62.087 12.4215C61.9456 12.3452 61.6891 12.2072 61.4502 12.1138C61.4249 12.1039 61.3979 12.0941 61.371 12.0841C61.1646 12.008 60.923 11.9191 60.8987 11.6739C60.88 11.4848 60.9758 11.3666 61.0903 11.2258C61.1178 11.192 61.1464 11.1569 61.1745 11.1191C61.508 10.6741 61.8217 10.0669 61.765 9.24495C61.7095 8.4381 61.1926 7.81154 60.328 7.71485C60.2278 7.70369 60.1304 7.69884 60.0357 7.70022C59.9411 7.69884 59.8431 7.70369 59.7429 7.71485C58.8783 7.81154 58.3615 8.4381 58.3059 9.24495C58.2492 10.0669 58.5629 10.6741 58.8964 11.1191C58.925 11.1569 58.9531 11.192 58.9806 11.2258C59.0951 11.3666 59.1909 11.4848 59.1722 11.6739C59.148 11.9191 58.9063 12.008 58.6999 12.0841C58.673 12.0941 58.6466 12.1039 58.6212 12.1138C58.3818 12.2072 58.1259 12.3452 57.9839 12.4215L57.9514 12.439C57.4979 12.6825 57.0003 12.9754 56.8886 13.3761C56.7516 13.8663 56.6778 14.4816 56.6916 14.9295H57.466C57.6817 14.9295 57.9035 14.9317 58.1297 14.9339C58.5943 14.9385 59.0759 14.9432 59.5508 14.9295Z" fill="#3C4BDC"/>
</svg>
